<svg width="140" height="14" viewBox="0 0 140 14" fill="none" xmlns="http://www.w3.org/2000/svg">
<g clip-path="url(#clip0_1243_8891)">
<path d="M0.5 13.8573V0.0898438H7.06201C7.8007 0.0898438 8.46862 0.211041 9.06725 0.453436C9.66538 0.69583 10.1753 1.02507 10.598 1.44068C11.0202 1.85628 11.3456 2.34696 11.5739 2.91271C11.8027 3.47846 11.9174 4.09033 11.9174 4.74833C11.9174 5.39505 11.7942 6.00103 11.5475 6.56678C11.3018 7.13253 10.9643 7.6291 10.5362 8.05599C10.1085 8.48337 9.60357 8.81801 9.02388 9.06089C8.4432 9.30329 7.82463 9.42449 7.16818 9.42449H4.07085V13.8578L0.5 13.8573ZM4.07085 6.98239H6.70961C6.97977 6.98239 7.22251 6.91271 7.43983 6.77434C7.65715 6.63597 7.84407 6.45981 8.00257 6.24588C8.16108 6.03243 8.28071 5.79347 8.36295 5.52753C8.44519 5.26207 8.48656 5.00201 8.48656 4.74833C8.48656 4.49416 8.43373 4.23754 8.32806 3.97797C8.22239 3.71791 8.08133 3.48435 7.90588 3.27679C7.72993 3.06874 7.52806 2.89897 7.29877 2.766C7.06999 2.63351 6.83273 2.56678 6.5865 2.56678H4.07085V6.98239Z" fill="#204859"/>
<path d="M26.0254 13.8573H21.9686L19.0019 9.40682H16.9832V13.8573H13.3066V0.0898438H20.069C20.8301 0.0898438 21.524 0.211041 22.15 0.453436C22.7771 0.69583 23.3124 1.02507 23.7575 1.44068C24.2026 1.85628 24.5451 2.34696 24.7848 2.91271C25.0246 3.47846 25.1452 4.09033 25.1452 4.74833C25.1452 5.68356 24.89 6.5236 24.3811 7.26796C23.8726 8.01281 23.1968 8.57561 22.3544 8.95638L26.0254 13.8573ZM16.9832 6.98239H19.7101C19.9913 6.98239 20.2465 6.91271 20.4753 6.77434C20.704 6.63597 20.9009 6.45981 21.0644 6.24588C21.2289 6.03243 21.355 5.79347 21.4432 5.52753C21.531 5.26207 21.5753 5.00201 21.5753 4.74833C21.5753 4.49416 21.5225 4.23754 21.4168 3.97797C21.3111 3.71791 21.1641 3.48435 20.9772 3.27679C20.7893 3.06874 20.5749 2.89897 20.3352 2.766C20.0944 2.63351 19.8397 2.56678 19.5696 2.56678H16.9837L16.9832 6.98239Z" fill="#204859"/>
<path d="M32.9559 0.00390625C34.0694 0.00390625 35.0663 0.188401 35.9461 0.557881C36.8258 0.927851 37.57 1.42687 38.1806 2.05543C38.7902 2.68497 39.2563 3.42344 39.5792 4.27182C39.9012 5.12069 40.0627 6.02942 40.0627 6.99949C40.0627 8.05003 39.8868 9.00538 39.5349 9.86554C39.1835 10.7257 38.694 11.4617 38.066 12.0736C37.4384 12.6855 36.6908 13.159 35.8235 13.4936C34.9552 13.8287 33.9997 13.9956 32.9564 13.9956C31.7836 13.9956 30.7543 13.8111 29.8691 13.4416C28.9838 13.0721 28.2421 12.5726 27.644 11.9436C27.0459 11.3145 26.5968 10.5755 26.2982 9.72716C25.9986 8.87878 25.8496 7.96956 25.8496 6.99949C25.8496 6.02942 26.0141 5.12069 26.3421 4.27182C26.67 3.42344 27.1426 2.68497 27.7581 2.05543C28.3742 1.42638 29.1219 0.927361 30.0016 0.557881C30.8799 0.188401 31.8653 0.00390625 32.9559 0.00390625ZM32.9559 11.2944C33.4947 11.2944 33.9817 11.1904 34.4154 10.9828C34.849 10.7748 35.2129 10.4833 35.506 10.1079C35.7985 9.73305 36.0248 9.28016 36.1833 8.74875C36.3418 8.21784 36.4211 7.62903 36.4211 6.98232C36.4211 6.38173 36.3533 5.82187 36.2182 5.30273C36.0842 4.7831 35.8758 4.32677 35.5942 3.93472C35.3121 3.54218 34.9547 3.23354 34.5205 3.00832C34.0869 2.7831 33.565 2.67025 32.9554 2.67025C32.3453 2.67025 31.82 2.78555 31.3803 3.01666C30.9407 3.24777 30.5798 3.55641 30.2987 3.94306C30.0176 4.32972 29.8092 4.78605 29.6742 5.31107C29.5391 5.83659 29.4718 6.3935 29.4718 6.98232C29.4718 7.57064 29.5421 8.12805 29.6831 8.65356C29.8242 9.17908 30.0345 9.63786 30.3167 10.0299C30.5978 10.4229 30.9587 10.7311 31.3983 10.9568C31.8389 11.182 32.3578 11.2944 32.9559 11.2944Z" fill="#204859"/>
<path d="M40.7307 10.134C40.9071 10.2616 41.0801 10.3852 41.2495 10.5064C41.42 10.6276 41.6099 10.7346 41.8213 10.8268C42.0326 10.9191 42.2733 10.9971 42.5425 11.0609C42.8127 11.1242 43.1347 11.1561 43.5105 11.1561C44.1086 11.1561 44.5747 11.0349 44.9091 10.7925C45.2431 10.5501 45.4868 10.2297 45.6393 9.83126C45.7919 9.43283 45.8821 8.98288 45.9115 8.48042C45.9409 7.97846 45.9558 7.46178 45.9558 6.93086V0.0898438H49.3856V7.67473C49.3856 8.63351 49.3004 9.50201 49.1304 10.2812C48.96 11.0604 48.6704 11.7243 48.2602 12.2724C47.8489 12.821 47.3066 13.2454 46.6322 13.5452C45.9578 13.8455 45.111 13.9956 44.0907 13.9956C43.6795 13.9956 43.2638 13.9495 42.8416 13.8573C42.4194 13.765 42.0171 13.6492 41.6363 13.5108C41.2555 13.3725 40.9041 13.2194 40.5811 13.0521C40.2581 12.8847 39.986 12.7204 39.7632 12.5584L40.7307 10.134Z" fill="#204859"/>
<path d="M55.3677 5.63155H61.0495V8.29838H55.3677V11.2253H62.017V13.8573H52.9513H51.7964V0.0898438H62.017V2.70466H55.3677V5.63155Z" fill="#204859"/>
<path d="M76.9515 8.6798C76.799 9.44182 76.5532 10.1494 76.2128 10.8015C75.8724 11.4541 75.4268 12.0169 74.876 12.4899C74.3247 12.9639 73.6583 13.3329 72.8792 13.5983C72.0992 13.8638 71.187 13.9968 70.1433 13.9968C69.2047 13.9968 68.317 13.8496 67.4781 13.5552C66.6402 13.2608 65.904 12.8221 65.271 12.2392C64.6375 11.6562 64.1355 10.932 63.7667 10.066C63.3968 9.19992 63.2124 8.19599 63.2124 7.05272C63.2124 6.08314 63.3739 5.17391 63.6959 4.32504C64.0189 3.47666 64.4849 2.7377 65.0945 2.10865C65.7046 1.4796 66.4403 0.980095 67.3026 0.611106C68.1649 0.242117 69.1409 0.0566406 70.2315 0.0566406C71.1576 0.0566406 72.0049 0.180782 72.7735 0.429065C73.5416 0.677347 74.2096 1.02671 74.7788 1.47666C75.348 1.92661 75.8165 2.47568 76.1864 3.1219C76.5562 3.76861 76.805 4.48991 76.9341 5.28677L73.8382 5.63319C73.744 5.21758 73.6089 4.83093 73.433 4.47273C73.257 4.11503 73.0347 3.8059 72.7646 3.54634C72.4944 3.28628 72.1694 3.08461 71.7886 2.93986C71.4068 2.7956 70.9702 2.72347 70.4777 2.72347C69.7978 2.72347 69.2376 2.85939 68.798 3.13024C68.3583 3.40159 68.0099 3.74506 67.7517 4.16066C67.4935 4.57627 67.3141 5.03849 67.2154 5.54634C67.1152 6.05419 67.0654 6.54487 67.0654 7.01837C67.0654 8.38049 67.3699 9.43397 67.9805 10.1788C68.5901 10.9232 69.4115 11.2956 70.4433 11.2956C71.3465 11.2956 72.0762 11.0508 72.633 10.5596C73.1897 10.0689 73.5855 9.36773 73.8203 8.45556L76.9515 8.6798Z" fill="#204859"/>
<path d="M89.8814 2.68749H85.4308V13.8573H81.8599V2.68749H77.4268V0.0898438H89.8819V2.68749H89.8814Z" fill="#204859"/>
<path d="M92.907 1.57954V6.18602H99.31V7.67522H92.907V12.3685H100.277V13.8578H90.9541V0.0898438H100.277V1.57954H92.907Z" fill="#204859"/>
<path d="M102.898 13.8573V0.0898438H107.965C108.915 0.0898438 109.812 0.257165 110.656 0.591806C111.501 0.926939 112.237 1.39701 112.864 2.00348C113.492 2.60947 113.99 3.33126 114.36 4.16835C114.729 5.00545 114.914 5.93185 114.914 6.94755C114.914 7.96374 114.726 8.89554 114.351 9.74441C113.975 10.5928 113.471 11.32 112.838 11.9264C112.205 12.5324 111.469 13.0059 110.63 13.3465C109.792 13.6875 108.903 13.8573 107.965 13.8573H102.898ZM112.996 6.93872C112.996 6.16443 112.872 5.45 112.626 4.79691C112.379 4.14333 112.023 3.57709 111.559 3.09671C111.095 2.61683 110.531 2.24441 109.867 1.97846C109.202 1.71202 108.459 1.57954 107.636 1.57954H104.851V12.3681H107.636C108.424 12.3681 109.146 12.2209 109.805 11.926C110.463 11.6311 111.03 11.238 111.506 10.7464C111.982 10.2552 112.349 9.67964 112.608 9.02066C112.866 8.36119 112.996 7.66737 112.996 6.93872Z" fill="#204859"/>
<path d="M121.85 13.8577L127.227 0.0908203H129.847L135.204 13.8577H131.777L130.694 10.7748H126.341L125.277 13.8577H121.85ZM128.527 3.46472L126.852 8.58346H130.143L128.527 3.46472Z" fill="#204859"/>
<path d="M136.484 13.8573V0.0898438H139.714V13.8568H136.484V13.8573Z" fill="#204859"/>
</g>
<defs>
<clipPath id="clip0_1243_8891">
<rect width="139" height="14" fill="white" transform="translate(0.5)"/>
</clipPath>
</defs>
</svg>
