<svg width="260" height="36" viewBox="0 0 260 36" fill="none" xmlns="http://www.w3.org/2000/svg">
<g clip-path="url(#clip0_1243_8663)">
<path d="M21.0573 28.0652C20.8591 28.0652 20.6608 27.9861 20.5099 27.8286C20.2073 27.5129 20.2073 27.0014 20.5099 26.6857L30.6515 16.1059C30.9541 15.7902 31.4445 15.7902 31.7471 16.1059C32.0497 16.4216 32.0497 16.9331 31.7471 17.2488L21.6055 27.8286C21.4538 27.9861 21.2556 28.0652 21.0573 28.0652Z" fill="#204859"/>
<path d="M10.9158 36.0001C10.7971 36.0001 10.6785 35.9719 10.5696 35.9148L0.428011 30.6256C0.165948 30.4886 0 30.2089 0 29.9026V6.09846C0 5.79217 0.165948 5.51252 0.428011 5.37543L10.5696 0.0855331C10.9518 -0.114219 11.4174 0.0479327 11.6089 0.446653C11.8003 0.846157 11.6449 1.33105 11.2627 1.5308L1.5491 6.59745V29.4029L10.1409 33.8843V11.3884C10.1409 10.9419 10.4878 10.58 10.9158 10.58C11.3438 10.58 11.6907 10.9419 11.6907 11.3884V35.1925C11.6907 35.473 11.5518 35.733 11.3235 35.8803C11.1989 35.9602 11.0577 36.0001 10.9158 36.0001Z" fill="#204859"/>
<path d="M31.199 17.4857C30.771 17.4857 30.4241 17.1238 30.4241 16.6773V1.61682H10.9158C10.4878 1.61682 10.1409 1.25491 10.1409 0.808408C10.1409 0.361903 10.4885 0 10.9165 0H31.1997C31.6278 0 31.9747 0.361903 31.9747 0.808408V16.6781C31.9739 17.1238 31.627 17.4857 31.199 17.4857Z" fill="#204859"/>
<path d="M21.0574 28.0658C20.941 28.0658 20.8223 28.0384 20.7112 27.9804L10.5696 22.6905C10.3466 22.5746 10.1912 22.3537 10.1514 22.0968C10.1116 21.8398 10.1919 21.5798 10.3684 21.3957L20.51 10.8159C20.8126 10.5002 21.3029 10.5002 21.6055 10.8159C21.9081 11.1316 21.9081 11.6431 21.6055 11.9588L12.2238 21.7466L21.4043 26.5352C21.7872 26.7349 21.9419 27.2206 21.7504 27.6193C21.6145 27.9021 21.3412 28.0658 21.0574 28.0658Z" fill="#204859"/>
<path d="M21.0574 12.1959H10.9165C10.4885 12.1959 10.1416 11.834 10.1416 11.3875C10.1416 10.941 10.4885 10.5791 10.9165 10.5791H21.0581C21.4861 10.5791 21.8331 10.941 21.8331 11.3875C21.8323 11.834 21.4854 12.1959 21.0574 12.1959Z" fill="#204859"/>
<path d="M21.0574 12.196C20.8591 12.196 20.6609 12.1169 20.51 11.9595C20.2074 11.6438 20.2074 11.1323 20.51 10.8166L30.6516 0.236765C30.9542 -0.0789216 31.4445 -0.0789216 31.7471 0.236765C32.0497 0.552451 32.0497 1.06397 31.7471 1.37966L21.6055 11.9595C21.4539 12.1177 21.2556 12.196 21.0574 12.196Z" fill="#204859"/>
<path d="M50.1035 28.9479V6.96973H59.9891C61.1019 6.96973 62.1081 7.16321 63.0099 7.55018C63.911 7.93715 64.6792 8.46277 65.3159 9.12626C65.9519 9.78975 66.4423 10.5731 66.7862 11.4763C67.1308 12.3795 67.3035 13.3563 67.3035 14.4068C67.3035 15.4392 67.1181 16.4066 66.7464 17.3098C66.3762 18.213 65.8678 19.0058 65.2228 19.6873C64.5785 20.3696 63.8179 20.9038 62.9446 21.2915C62.0698 21.6785 61.1379 21.872 60.149 21.872H55.4837V28.9495H50.1035V28.9479ZM55.4837 17.9733H59.4589C59.8659 17.9733 60.2316 17.8621 60.559 17.6412C60.8864 17.4203 61.168 17.1391 61.4068 16.7975C61.6455 16.4568 61.8258 16.0753 61.9496 15.6507C62.0735 15.2269 62.1359 14.8118 62.1359 14.4068C62.1359 14.0018 62.0563 13.5913 61.8971 13.1769C61.7379 12.7617 61.5254 12.3889 61.2611 12.0575C60.996 11.7254 60.6919 11.4544 60.3465 11.2421C60.0018 11.0306 59.6444 10.924 59.2735 10.924H55.4837V17.9733Z" fill="#204859"/>
<path d="M88.5569 28.9479H82.4454L77.976 21.843H74.9349V28.9479H69.3963V6.96973H79.5837C80.7303 6.96973 81.7756 7.16321 82.7187 7.55018C83.6633 7.93715 84.4698 8.46277 85.1403 9.12626C85.8109 9.78975 86.3268 10.5731 86.6879 11.4763C87.0491 12.3795 87.2308 13.3563 87.2308 14.4068C87.2308 15.8998 86.8464 17.2409 86.0797 18.4292C85.3138 19.6183 84.2956 20.5168 83.0266 21.1247L88.5569 28.9479ZM74.9349 17.9733H79.0431C79.4666 17.9733 79.851 17.8621 80.1957 17.6412C80.5404 17.4203 80.837 17.1391 81.0833 16.7975C81.331 16.4568 81.521 16.0753 81.6539 15.6507C81.7861 15.2269 81.8529 14.8118 81.8529 14.4068C81.8529 14.0018 81.7733 13.5913 81.6141 13.1769C81.4549 12.7617 81.2334 12.3889 80.9518 12.0575C80.6688 11.7254 80.3459 11.4544 79.9847 11.2421C79.622 11.0306 79.2383 10.924 78.8313 10.924H74.9357L74.9349 17.9733Z" fill="#204859"/>
<path d="M98.9981 6.83203C100.676 6.83203 102.177 7.12657 103.503 7.71642C104.828 8.30706 105.949 9.10372 106.869 10.1072C107.787 11.1122 108.489 12.2911 108.976 13.6455C109.461 15.0007 109.704 16.4515 109.704 18.0001C109.704 19.6773 109.439 21.2024 108.909 22.5756C108.38 23.9488 107.642 25.1238 106.696 26.1006C105.751 27.0775 104.625 27.8334 103.318 28.3676C102.01 28.9027 100.571 29.169 98.9989 29.169C97.232 29.169 95.6814 28.8745 94.3478 28.2846C93.0135 27.6947 91.8969 26.8973 90.9958 25.8931C90.0948 24.8888 89.4182 23.7091 88.9684 22.3547C88.5171 21.0003 88.2926 19.5488 88.2926 18.0001C88.2926 16.4515 88.5404 15.0007 89.0345 13.6455C89.5286 12.2911 90.2404 11.1122 91.1678 10.1072C92.0959 9.10294 93.2222 8.30628 94.5476 7.71642C95.8706 7.12657 97.3552 6.83203 98.9981 6.83203ZM98.9981 24.8567C99.8098 24.8567 100.543 24.6906 101.197 24.3593C101.85 24.0271 102.398 23.5618 102.84 22.9626C103.28 22.3641 103.621 21.6411 103.86 20.7927C104.099 19.9452 104.218 19.0051 104.218 17.9727C104.218 17.0139 104.116 16.1201 103.913 15.2913C103.711 14.4618 103.397 13.7333 102.973 13.1074C102.548 12.4807 102.009 11.988 101.355 11.6284C100.702 11.2689 99.9157 11.0887 98.9974 11.0887C98.0783 11.0887 97.2868 11.2728 96.6245 11.6417C95.9623 12.0107 95.4186 12.5034 94.9951 13.1207C94.5716 13.738 94.2577 14.4665 94.0542 15.3046C93.8507 16.1436 93.7494 17.0327 93.7494 17.9727C93.7494 18.9119 93.8552 19.8018 94.0677 20.6408C94.2802 21.4797 94.5971 22.2121 95.0221 22.838C95.4456 23.4655 95.9893 23.9574 96.6516 24.3178C97.3154 24.6773 98.0971 24.8567 98.9981 24.8567Z" fill="#204859"/>
<path d="M110.711 23.0039C110.976 23.2076 111.237 23.405 111.492 23.5985C111.749 23.792 112.035 23.9627 112.354 24.11C112.672 24.2573 113.035 24.3818 113.44 24.4837C113.847 24.5847 114.332 24.6356 114.898 24.6356C115.799 24.6356 116.501 24.4421 117.005 24.0552C117.508 23.6682 117.876 23.1567 118.105 22.5206C118.335 21.8845 118.471 21.1662 118.515 20.3641C118.56 19.5627 118.582 18.7379 118.582 17.8903V6.96973H123.749V19.0786C123.749 20.6093 123.621 21.9958 123.365 23.2397C123.108 24.4837 122.672 25.5435 122.054 26.4185C121.434 27.2943 120.617 27.9719 119.601 28.4505C118.585 28.9299 117.309 29.1696 115.772 29.1696C115.153 29.1696 114.527 29.096 113.891 28.9487C113.255 28.8014 112.649 28.6166 112.075 28.3957C111.501 28.1748 110.972 27.9304 110.485 27.6632C109.999 27.3961 109.589 27.1337 109.253 26.8752L110.711 23.0039Z" fill="#204859"/>
<path d="M132.761 15.8168H141.32V20.0742H132.761V24.7469H142.778V28.9487H129.12H127.38V6.96973H142.778V11.1442H132.761V15.8168Z" fill="#204859"/>
<path d="M165.276 20.6825C165.046 21.899 164.676 23.0286 164.163 24.0696C163.65 25.1115 162.979 26.01 162.149 26.7651C161.319 27.5218 160.315 28.1109 159.141 28.5347C157.966 28.9584 156.592 29.1707 155.019 29.1707C153.606 29.1707 152.268 28.9357 151.004 28.4657C149.742 27.9957 148.633 27.2954 147.679 26.3648C146.725 25.4342 145.969 24.278 145.413 22.8954C144.856 21.5128 144.578 19.9101 144.578 18.0849C144.578 16.537 144.822 15.0855 145.307 13.7303C145.793 12.3759 146.495 11.1962 147.414 10.1919C148.333 9.1877 149.441 8.39026 150.74 7.80119C152.039 7.21134 153.509 6.91602 155.152 6.91602C156.548 6.91602 157.824 7.1142 158.982 7.51057C160.139 7.90694 161.145 8.46468 162.003 9.183C162.86 9.90211 163.566 10.7779 164.123 11.8095C164.68 12.842 165.055 13.9935 165.25 15.2656L160.586 15.8187C160.444 15.1552 160.24 14.5379 159.975 13.9661C159.71 13.395 159.375 12.9015 158.968 12.4871C158.561 12.072 158.072 11.75 157.498 11.5189C156.923 11.2886 156.265 11.1735 155.523 11.1735C154.499 11.1735 153.655 11.3905 152.993 11.8229C152.33 12.2561 151.806 12.8044 151.417 13.4679C151.028 14.1314 150.757 14.8693 150.609 15.68C150.458 16.4908 150.383 17.2741 150.383 18.0301C150.383 20.2046 150.841 21.8864 151.761 23.0756C152.68 24.2639 153.917 24.8584 155.471 24.8584C156.832 24.8584 157.931 24.4676 158.77 23.6834C159.609 22.9001 160.205 21.7807 160.559 20.3245L165.276 20.6825Z" fill="#204859"/>
<path d="M184.755 11.1167H178.05V28.9487H172.671V11.1167H165.992V6.96973H184.755V11.1167Z" fill="#204859"/>
<path d="M189.313 9.34717V16.7012H198.959V19.0786H189.313V26.5713H200.416V28.9487H186.371V6.96973H200.416V9.34717H189.313Z" fill="#204859"/>
<path d="M204.365 28.9479V6.96973H211.997C213.429 6.96973 214.779 7.23685 216.052 7.77108C217.324 8.30611 218.433 9.05655 219.378 10.0248C220.323 10.9922 221.074 12.1445 221.631 13.4809C222.188 14.8172 222.466 16.2962 222.466 17.9177C222.466 19.54 222.183 21.0276 221.618 22.3827C221.052 23.7371 220.293 24.8981 219.338 25.8663C218.385 26.8337 217.275 27.5896 216.012 28.1333C214.749 28.6777 213.411 28.9487 211.997 28.9487H204.365V28.9479ZM219.576 17.9036C219.576 16.6675 219.39 15.5269 219.018 14.4843C218.647 13.4409 218.11 12.5369 217.411 11.77C216.712 11.0039 215.862 10.4094 214.862 9.98481C213.861 9.55945 212.742 9.34795 211.502 9.34795H207.307V26.5713H211.502C212.688 26.5713 213.777 26.3363 214.769 25.8655C215.76 25.3947 216.615 24.7672 217.332 23.9823C218.049 23.1982 218.602 22.2793 218.992 21.2273C219.381 20.1737 219.576 19.0669 219.576 17.9036Z" fill="#204859"/>
<path d="M232.914 28.9487L241.015 6.96973H244.963L253.033 28.9479H247.87L246.238 24.0262H239.681L238.078 28.9479H232.914V28.9487ZM242.974 12.356L240.451 20.5278H245.408L242.974 12.356Z" fill="#204859"/>
<path d="M254.962 28.9487V6.96973H259.828V28.9479H254.962V28.9487Z" fill="#204859"/>
</g>
<defs>
<clipPath id="clip0_1243_8663">
<rect width="260" height="36" fill="white"/>
</clipPath>
</defs>
</svg>
